<?xml version="1.0" encoding="UTF-8"?>
<svg id="Layer_3" data-name="Layer 3" xmlns="http://www.w3.org/2000/svg" viewBox="0 0 41 24">
  <defs>
    <style>
      .cls-1 {
        fill: #343a40;
      }
    </style>
  </defs>
  <path class="cls-1" d="M41,23.36c-1.49.38-2.41.02-3.24-1.24-1.86-2.81-3.91-5.48-5.89-8.21-.25-.35-.52-.7-.85-1.14-2.34,3.19-4.68,6.22-6.87,9.38-.78,1.13-1.61,1.62-3.07,1.22l8.8-11.92L21.68.7c1.41-.28,2.38-.14,3.25,1.14,1.91,2.81,4.01,5.48,6.11,8.31,2.11-2.82,4.19-5.5,6.15-8.28.79-1.13,1.64-1.56,3.05-1.14-1.07,1.43-2.12,2.85-3.18,4.25-1.43,1.89-2.83,3.8-4.3,5.65-.53.66-.44,1.09.03,1.71,2.73,3.62,5.44,7.29,8.22,11.03ZM0,11.26c.24-1.19.39-2.4.72-3.57C2.69.62,10.74-2.32,16.26,2.06c3.24,2.57,4.04,6.19,3.88,10.27H1.9c-.27,7.33,4.95,11.75,11.62,9.49,2.34-.79,3.72-2.64,4.41-4.95.35-1.16.93-1.34,2.01-1.01-.55,2.89-1.81,5.3-4.42,6.81-3.92,2.26-9.53,1.53-12.47-1.61-1.74-1.85-2.48-4.15-2.81-6.63C.18,14.05.08,13.66,0,13.27c0-.67,0-1.34,0-2.01ZM1.93,10.77h16.49c-.11-5.3-3.38-9.06-7.85-9.09-4.91-.04-8.43,3.63-8.64,9.09Z"/>
</svg>