<?xml version="1.0" encoding="UTF-8"?>
<svg id="Layer_6" data-name="Layer 6" xmlns="http://www.w3.org/2000/svg" viewBox="0 0 11 24">
  <defs>
    <style>
      .cls-1 {
        fill: #343a40;
      }
    </style>
  </defs>
  <path class="cls-1" d="M5.35,17.75s0-8.29.28-8.29c.22,0,.5,10.7.5,10.7-.39-.04-.78-1.76-.78-2.4ZM10.8,9.56c-.75-3.21-2.4-5.98-4.67-8.11h0c-.28-.42-.53-.89-.73-1.39l-.02-.05s0,.04,0,.05c0,.45-.21.86-.53,1.13h0C1.92,3.61.06,7.19,0,11.19H0c0,.06,0,.12,0,.18,0,3.97,1.95,7.49,4.96,9.7l.03.02.07.05c.13.95.24,1.91.34,2.86h.49c.14-1.19.32-2.24.56-3.26l-.04.19c.32-.22.61-.45.87-.7h0c2.29-2.08,3.72-5.04,3.72-8.32,0-.05,0-.1,0-.15h0c0-.78-.08-1.55-.21-2.29v.08s.01,0,.01,0Z"/>
</svg>