<?xml version="1.0" encoding="UTF-8"?>
<svg id="Layer_4" data-name="Layer 4" xmlns="http://www.w3.org/2000/svg" viewBox="0 0 28 24">
  <defs>
    <style>
      .cls-1 {
        fill: #343a40;
      }
    </style>
  </defs>
  <path class="cls-1" d="M14.01,9.64c.48,0,.95.14,1.35.39.4.26.71.62.9,1.04.19.42.23.89.14,1.34-.09.45-.32.87-.66,1.19-.34.33-.77.55-1.24.64-.47.09-.96.05-1.41-.12-.45-.17-.83-.47-1.1-.85-.27-.38-.42-.83-.42-1.29,0-.31.06-.61.18-.9s.3-.54.53-.76c.23-.22.5-.39.79-.51s.61-.18.94-.18ZM7.97,21.97c.82.47,2.61-.25,4.69-2.12-.7-.76-1.35-1.55-1.97-2.37-1.05-.11-2.09-.28-3.13-.5-.66,2.67-.42,4.5.4,4.99ZM8.9,14.81l-.38-.64c-.15.35-.27.71-.38,1.07.35.07.74.14,1.15.2l-.39-.64ZM17.42,13.86l1.06-1.87-1.06-1.87c-.39-.66-.81-1.25-1.19-1.83-.7-.04-1.45-.04-2.23-.04h-2.23c-.38.59-.79,1.17-1.19,1.83l-1.06,1.91,1.06,1.87c.39.66.81,1.25,1.19,1.83h4.46c.38-.59.79-1.17,1.19-1.83ZM14.01,5.48c-.25.27-.51.56-.77.9h1.54c-.26-.34-.52-.62-.77-.9ZM14.01,18.5c.25-.27.51-.56.77-.9h-1.54c.26.34.52.62.77.9ZM20.03,2.02c-.81-.47-2.61.25-4.68,2.12.7.76,1.35,1.55,1.97,2.37,1.05.1,2.09.25,3.13.45.66-2.67.42-4.5-.42-4.99M19.11,9.13l.38.64c.15-.35.27-.71.38-1.07-.35-.07-.74-.14-1.15-.2l.39.64ZM21,.4c1.92,1.05,2.12,3.8,1.3,7.02,3.31.94,5.69,2.49,5.69,4.59s-2.38,3.65-5.69,4.59c.81,3.22.6,5.97-1.3,7.02-1.9,1.05-4.5-.15-7-2.43-2.5,2.28-5.09,3.48-7.01,2.43-1.92-1.05-2.11-3.74-1.3-7.02-3.31-.94-5.69-2.49-5.69-4.59s2.38-3.67,5.69-4.6c-.81-3.22-.6-5.97,1.3-7.02,1.9-1.05,4.51.15,7.01,2.43,2.5-2.28,5.09-3.48,7-2.43M20.63,11.99c.45.92.85,1.86,1.2,2.82,2.74-.79,4.27-1.91,4.27-2.82s-1.58-2.03-4.27-2.82c-.35.96-.75,1.9-1.2,2.82ZM7.39,11.99c-.45-.92-.85-1.86-1.2-2.82-2.74.79-4.27,1.91-4.27,2.82s1.58,2.03,4.27,2.82c.35-.96.75-1.9,1.2-2.82ZM19.11,14.81l-.39.64c.4,0,.79-.12,1.15-.2-.1-.36-.23-.72-.38-1.07l-.38.64ZM15.31,19.85c2.07,1.87,3.91,2.59,4.68,2.12.77-.47,1.08-2.27.42-4.99-1.03.2-2.08.35-3.13.45-.61.84-1.27,1.65-1.97,2.42ZM8.9,9.18l.39-.64c-.4,0-.79.12-1.15.2.1.36.23.72.38,1.07l.38-.64ZM12.7,4.14c-2.11-1.87-3.91-2.59-4.73-2.12-.82.47-1.07,2.27-.4,4.99,1.03-.2,2.08-.35,3.13-.45.63-.84,1.3-1.65,2.01-2.42Z"/>
</svg>