<?xml version="1.0" encoding="UTF-8"?>
<svg id="Layer_1" data-name="Layer 1" xmlns="http://www.w3.org/2000/svg" viewBox="0 0 26.88 24">
  <defs>
    <style>
      .cls-1 {
        fill: #343a40;
        fill-rule: evenodd;
      }
    </style>
  </defs>
  <path class="cls-1" d="M.81.01l8.91,1.6-.44,7.34c-.01.23.2.4.42.35l2.63-.6c.25-.06.47.16.42.4l-.78,3.77c-.05.25.19.47.44.4l1.63-.49c.25-.08.49.14.44.4l-1.24,5.93c-.08.37.42.57.63.25l.14-.21,7.71-15.15c.13-.25-.09-.54-.38-.49l-2.71.51c-.25.05-.47-.19-.4-.43l.67-2.27L26.07.02c.57-.1,1,.5.72,1.01l-12.63,22.62c-.26.47-.93.47-1.2,0L.09,1.03C-.2.52.24-.09.81.01Z"/>
</svg>